<?xml version="1.0" encoding="iso-8859-1"?>
<!-- Generator: Adobe Illustrator 19.0.0, SVG Export Plug-In . SVG Version: 6.00 Build 0)  -->
<svg version="1.1" id="Capa_1" xmlns="http://www.w3.org/2000/svg" xmlns:xlink="http://www.w3.org/1999/xlink" x="0px" y="0px"
	 viewBox="0 0 512 512" style="enable-background:new 0 0 512 512;" xml:space="preserve">
<g>
	<path style="fill:#3A4747;" d="M45.841,409.199c-1.519,0-3.053-0.455-4.386-1.4c-3.422-2.427-4.228-7.166-1.803-10.588
		c22.199-31.307,46.491-38.545,62.96-39.105c18.096-0.602,30.891,6.553,31.425,6.858c3.643,2.08,4.911,6.718,2.831,10.36
		c-2.074,3.635-6.697,4.904-10.333,2.847c-1.721-0.954-39.735-21.194-74.493,27.825C50.562,408.084,48.22,409.199,45.841,409.199z"
		/>
	<path style="fill:#3A4747;" d="M26.906,323.036c-1.519,0-3.053-0.455-4.386-1.4c-3.422-2.427-4.228-7.166-1.803-10.588
		c22.199-31.307,46.491-38.545,62.96-39.105c18.091-0.594,30.891,6.552,31.425,6.858c3.643,2.08,4.911,6.718,2.831,10.36
		c-2.074,3.635-6.697,4.904-10.333,2.847c-1.722-0.954-39.735-21.194-74.493,27.825C31.628,321.921,29.285,323.036,26.906,323.036z"
		/>
	<path style="fill:#3A4747;" d="M53.352,218.992c-2.103,0-4.197-0.868-5.698-2.57c-2.775-3.145-2.475-7.944,0.67-10.719
		c28.776-25.392,54.082-26.877,70.239-23.653c17.774,3.548,28.571,13.45,29.022,13.87c3.07,2.858,3.242,7.664,0.384,10.733
		c-2.85,3.061-7.636,3.242-10.707,0.408c-1.421-1.29-33.802-29.756-78.889,10.031C56.93,218.366,55.137,218.992,53.352,218.992z"/>
	<path style="fill:#3A4747;" d="M466.158,409.199c-2.379,0-4.722-1.114-6.202-3.203c-14.934-21.06-32.121-32.065-51.084-32.709
		c-13.633-0.469-23.286,4.816-23.381,4.868c-3.643,2.077-8.282,0.812-10.36-2.831c-2.08-3.642-0.812-8.281,2.831-10.36
		c0.535-0.306,13.334-7.443,31.425-6.858c16.469,0.56,40.76,7.798,62.96,39.105c2.426,3.422,1.619,8.161-1.803,10.588
		C469.21,408.744,467.676,409.199,466.158,409.199z"/>
	<path style="fill:#3A4747;" d="M485.093,323.036c-2.379,0-4.722-1.114-6.202-3.203c-14.934-21.06-32.121-32.065-51.084-32.709
		c-13.644-0.465-23.287,4.815-23.381,4.868c-3.643,2.077-8.282,0.812-10.36-2.831c-2.08-3.642-0.812-8.281,2.831-10.36
		c0.534-0.305,13.336-7.458,31.425-6.858c16.469,0.56,40.76,7.798,62.96,39.105c2.426,3.422,1.619,8.161-1.803,10.588
		C488.145,322.581,486.611,323.036,485.093,323.036z"/>
	<path style="fill:#3A4747;" d="M458.646,218.992c-1.786,0-3.578-0.626-5.022-1.9c-19.36-17.084-38.61-23.864-57.217-20.147
		c-13.379,2.671-21.565,10.018-21.645,10.091c-3.069,2.858-7.875,2.685-10.733-0.384s-2.687-7.875,0.384-10.733
		c0.451-0.42,11.247-10.322,29.022-13.87c16.161-3.222,41.464-1.738,70.239,23.653c3.146,2.776,3.445,7.575,0.67,10.719
		C462.843,218.124,460.749,218.992,458.646,218.992z"/>
	<path style="fill:#3A4747;" d="M255.999,150.819c-4.195,0-7.595-3.4-7.595-7.595V7.595C248.405,3.4,251.804,0,255.999,0
		c4.195,0,7.595,3.4,7.595,7.595v135.63C263.594,147.42,260.194,150.819,255.999,150.819z"/>
</g>
<circle style="fill:#597070;" cx="255.979" cy="296.83" r="153.91"/>
<path style="fill:#49605F;" d="M391.19,370.411c-26.098,47.859-76.863,80.326-135.21,80.326
	c-85.01,0-153.918-68.908-153.918-153.909c0-46.975,21.041-89.029,54.219-117.259c-11.91,21.852-18.681,46.92-18.681,73.565
	c0,85.001,68.908,153.909,153.918,153.909C329.536,407.043,364.345,393.256,391.19,370.411z"/>
<circle style="fill:#738182;" cx="255.979" cy="441.38" r="70.62"/>
<path style="fill:#576666;" d="M309.926,486.941C296.977,502.268,277.613,512,255.98,512c-39.01,0-70.621-31.62-70.621-70.621
	c0-26.727,14.844-49.982,36.732-61.974c-10.416,12.302-16.685,28.203-16.685,45.572c0,39.001,31.611,70.621,70.621,70.621
	C288.311,495.598,299.866,492.463,309.926,486.941z"/>
<g>
	<path style="fill:#3A4747;" d="M225.977,459.303c-11.014,0-19.975-10.11-19.975-22.538v-5.731c0-4.186,3.392-7.578,7.578-7.578
		s7.578,3.392,7.578,7.578v5.731c0,4.225,2.544,7.382,4.818,7.382c2.274,0,4.818-3.157,4.818-7.382v-5.731
		c0-4.186,3.392-7.578,7.578-7.578s7.578,3.392,7.578,7.578v5.731C245.951,449.193,236.991,459.303,225.977,459.303z"/>
	<path style="fill:#3A4747;" d="M285.973,459.303c-11.014,0-19.975-10.11-19.975-22.538v-5.731c0-4.186,3.392-7.578,7.578-7.578
		s7.578,3.392,7.578,7.578v5.731c0,4.225,2.544,7.382,4.818,7.382s4.818-3.157,4.818-7.382v-5.731c0-4.186,3.392-7.578,7.578-7.578
		s7.578,3.392,7.578,7.578v5.731C305.948,449.193,296.987,459.303,285.973,459.303z"/>
</g>
<g>
</g>
<g>
</g>
<g>
</g>
<g>
</g>
<g>
</g>
<g>
</g>
<g>
</g>
<g>
</g>
<g>
</g>
<g>
</g>
<g>
</g>
<g>
</g>
<g>
</g>
<g>
</g>
<g>
</g>
</svg>
